<svg width="42" height="33" viewBox="0 0 42 33" fill="none" xmlns="http://www.w3.org/2000/svg">
<path d="M2.35938 17C1.95326 17 1.56378 16.8387 1.27662 16.5515C0.989453 16.2643 0.828125 15.8749 0.828125 15.4688C0.828125 15.0626 0.989453 14.6732 1.27662 14.386C1.56378 14.0988 1.95326 13.9375 2.35938 13.9375H7.71875C8.12486 13.9375 8.51434 13.7762 8.80151 13.489C9.08867 13.2018 9.25 12.8124 9.25 12.4062C9.25 12.0001 9.08867 11.6107 8.80151 11.3235C8.51434 11.0363 8.12486 10.875 7.71875 10.875H4.65625C3.43791 10.875 2.26947 10.391 1.40798 9.52952C0.546483 8.66803 0.0625 7.49959 0.0625 6.28125C0.0625 5.06291 0.546483 3.89447 1.40798 3.03298C2.26947 2.17148 3.43791 1.6875 4.65625 1.6875C4.65625 1.28139 4.81758 0.891908 5.10474 0.604743C5.39191 0.317578 5.78139 0.15625 6.1875 0.15625C6.59361 0.15625 6.98309 0.317578 7.27026 0.604743C7.55742 0.891908 7.71875 1.28139 7.71875 1.6875H9.25C9.65611 1.6875 10.0456 1.84883 10.3328 2.13599C10.6199 2.42316 10.7812 2.81264 10.7812 3.21875C10.7812 3.62486 10.6199 4.01434 10.3328 4.30151C10.0456 4.58867 9.65611 4.75 9.25 4.75H4.65625C4.25014 4.75 3.86066 4.91133 3.57349 5.19849C3.28633 5.48566 3.125 5.87514 3.125 6.28125C3.125 6.68736 3.28633 7.07684 3.57349 7.36401C3.86066 7.65117 4.25014 7.8125 4.65625 7.8125H7.71875C8.93709 7.8125 10.1055 8.29648 10.967 9.15798C11.8285 10.0195 12.3125 11.1879 12.3125 12.4062C12.3125 13.6246 11.8285 14.793 10.967 15.6545C10.1055 16.516 8.93709 17 7.71875 17C7.71875 17.4061 7.55742 17.7956 7.27026 18.0828C6.98309 18.3699 6.59361 18.5312 6.1875 18.5312C5.78139 18.5312 5.39191 18.3699 5.10474 18.0828C4.81758 17.7956 4.65625 17.4061 4.65625 17H2.35938ZM39.875 1.6875H15.375C14.9689 1.6875 14.5794 1.84883 14.2922 2.13599C14.0051 2.42316 13.8438 2.81264 13.8438 3.21875C13.8438 3.62486 14.0051 4.01434 14.2922 4.30151C14.5794 4.58867 14.9689 4.75 15.375 4.75H38.3438V10.875H16.9062C16.5001 10.875 16.1107 11.0363 15.8235 11.3235C15.5363 11.6107 15.375 12.0001 15.375 12.4062C15.375 12.8124 15.5363 13.2018 15.8235 13.489C16.1107 13.7762 16.5001 13.9375 16.9062 13.9375H27.625V20.0625H12.3125C11.9064 20.0625 11.5169 20.2238 11.2297 20.511C10.9426 20.7982 10.7812 21.1876 10.7812 21.5938C10.7812 21.9999 10.9426 22.3893 11.2297 22.6765C11.5169 22.9637 11.9064 23.125 12.3125 23.125H27.625V29.25H4.65625V21.5938C4.65625 21.1876 4.49492 20.7982 4.20776 20.511C3.92059 20.2238 3.53111 20.0625 3.125 20.0625C2.71889 20.0625 2.32941 20.2238 2.04224 20.511C1.75508 20.7982 1.59375 21.1876 1.59375 21.5938V29.25C1.59375 30.0622 1.91641 30.8412 2.49074 31.4155C3.06507 31.9898 3.84402 32.3125 4.65625 32.3125H38.3438C39.156 32.3125 39.9349 31.9898 40.5093 31.4155C41.0836 30.8412 41.4062 30.0622 41.4062 29.25V3.21875C41.4062 2.81264 41.2449 2.42316 40.9578 2.13599C40.6706 1.84883 40.2811 1.6875 39.875 1.6875Z" fill="#005BAC"/>
</svg>
